<mxfile host="app.diagrams.net" agent="Mozilla/5.0 (Windows NT 10.0; Win64; x64) AppleWebKit/537.36 (KHTML, like Gecko) Chrome/131.0.0.0 Safari/537.36" version="25.0.3" pages="2">
  <diagram name="Página-1" id="6tUi4kCYSDBjhdzNnTA-">
    <mxGraphModel dx="954" dy="558" grid="1" gridSize="10" guides="1" tooltips="1" connect="1" arrows="1" fold="1" page="1" pageScale="1" pageWidth="827" pageHeight="1169" math="0" shadow="0">
      <root>
        <mxCell id="0" />
        <mxCell id="1" parent="0" />
        <mxCell id="2DufNW35CpGxQ77xqp7M-3" style="edgeStyle=orthogonalEdgeStyle;rounded=0;orthogonalLoop=1;jettySize=auto;html=1;strokeColor=#FFB570;" parent="1" source="2DufNW35CpGxQ77xqp7M-1" target="2DufNW35CpGxQ77xqp7M-2" edge="1">
          <mxGeometry relative="1" as="geometry" />
        </mxCell>
        <mxCell id="X6uK3PPM871VzGU8RNQX-4" value="Compra SVA" style="edgeLabel;html=1;align=center;verticalAlign=middle;resizable=0;points=[];" vertex="1" connectable="0" parent="2DufNW35CpGxQ77xqp7M-3">
          <mxGeometry x="-0.0965" y="3" relative="1" as="geometry">
            <mxPoint as="offset" />
          </mxGeometry>
        </mxCell>
        <mxCell id="2DufNW35CpGxQ77xqp7M-1" value="Compra Controle&amp;nbsp;&lt;div&gt;Remoto&lt;/div&gt;" style="shape=image;html=1;verticalAlign=top;verticalLabelPosition=bottom;labelBackgroundColor=#ffffff;imageAspect=0;aspect=fixed;image=https://cdn0.iconfinder.com/data/icons/electronics-line-style/64/Remote-128.png" parent="1" vertex="1">
          <mxGeometry x="10" y="7" width="88" height="88" as="geometry" />
        </mxCell>
        <mxCell id="X6uK3PPM871VzGU8RNQX-2" style="edgeStyle=orthogonalEdgeStyle;rounded=0;orthogonalLoop=1;jettySize=auto;html=1;entryX=0.5;entryY=0;entryDx=0;entryDy=0;" edge="1" parent="1" source="2DufNW35CpGxQ77xqp7M-2" target="X6uK3PPM871VzGU8RNQX-1">
          <mxGeometry relative="1" as="geometry" />
        </mxCell>
        <mxCell id="X6uK3PPM871VzGU8RNQX-3" value="" style="edgeStyle=orthogonalEdgeStyle;rounded=0;orthogonalLoop=1;jettySize=auto;html=1;strokeColor=#FFB570;" edge="1" parent="1" source="2DufNW35CpGxQ77xqp7M-2" target="X6uK3PPM871VzGU8RNQX-1">
          <mxGeometry relative="1" as="geometry" />
        </mxCell>
        <mxCell id="2DufNW35CpGxQ77xqp7M-2" value="STB" style="shape=mxgraph.cisco.misc.set_top_box;html=1;pointerEvents=1;dashed=0;fillColor=#036897;strokeColor=#ffffff;strokeWidth=2;verticalLabelPosition=bottom;verticalAlign=top;align=center;outlineConnect=0;" parent="1" vertex="1">
          <mxGeometry x="357" y="30" width="114" height="42" as="geometry" />
        </mxCell>
        <mxCell id="X6uK3PPM871VzGU8RNQX-23" style="edgeStyle=orthogonalEdgeStyle;rounded=0;orthogonalLoop=1;jettySize=auto;html=1;entryX=0.5;entryY=0;entryDx=0;entryDy=0;fillColor=#ffe6cc;strokeColor=#FFB570;" edge="1" parent="1" source="X6uK3PPM871VzGU8RNQX-1" target="X6uK3PPM871VzGU8RNQX-6">
          <mxGeometry relative="1" as="geometry" />
        </mxCell>
        <mxCell id="X6uK3PPM871VzGU8RNQX-24" style="edgeStyle=orthogonalEdgeStyle;rounded=0;orthogonalLoop=1;jettySize=auto;html=1;exitX=0;exitY=0.5;exitDx=0;exitDy=0;strokeColor=#FFB570;" edge="1" parent="1" source="X6uK3PPM871VzGU8RNQX-1" target="X6uK3PPM871VzGU8RNQX-5">
          <mxGeometry relative="1" as="geometry">
            <Array as="points">
              <mxPoint x="100" y="210" />
            </Array>
          </mxGeometry>
        </mxCell>
        <mxCell id="X6uK3PPM871VzGU8RNQX-1" value="Novo MS Orc" style="rounded=1;whiteSpace=wrap;html=1;" vertex="1" parent="1">
          <mxGeometry x="354" y="180" width="120" height="60" as="geometry" />
        </mxCell>
        <mxCell id="X6uK3PPM871VzGU8RNQX-5" value="Novo? MS customer-contracts" style="rounded=1;whiteSpace=wrap;html=1;" vertex="1" parent="1">
          <mxGeometry x="40" y="290" width="120" height="60" as="geometry" />
        </mxCell>
        <mxCell id="X6uK3PPM871VzGU8RNQX-6" value="MS customer-orch-creditanalisys-svc" style="rounded=1;whiteSpace=wrap;html=1;" vertex="1" parent="1">
          <mxGeometry x="650" y="290" width="120" height="60" as="geometry" />
        </mxCell>
        <mxCell id="X6uK3PPM871VzGU8RNQX-8" value="(NF) MS Contrata OTT (MS customer-netsms-customerorders-v1?)" style="rounded=1;whiteSpace=wrap;html=1;" vertex="1" parent="1">
          <mxGeometry x="200" y="290" width="120" height="60" as="geometry" />
        </mxCell>
        <mxCell id="X6uK3PPM871VzGU8RNQX-9" value="(NF) MS Elegibilidade" style="rounded=1;whiteSpace=wrap;html=1;" vertex="1" parent="1">
          <mxGeometry x="354" y="290" width="120" height="60" as="geometry" />
        </mxCell>
        <mxCell id="X6uK3PPM871VzGU8RNQX-10" value="(NF) MS Encontrar Product ID" style="rounded=1;whiteSpace=wrap;html=1;" vertex="1" parent="1">
          <mxGeometry x="510" y="290" width="120" height="60" as="geometry" />
        </mxCell>
        <mxCell id="X6uK3PPM871VzGU8RNQX-11" value="Tabela atualizada com relação de SKU x Product ID&lt;div&gt;&lt;br&gt;&lt;/div&gt;&lt;div&gt;&lt;b&gt;Request&lt;/b&gt;: Contrato+SKU+CID&lt;/div&gt;&lt;div&gt;&lt;br&gt;&lt;/div&gt;&lt;div&gt;&lt;b&gt;Response&lt;/b&gt;: Product ID&lt;/div&gt;" style="text;html=1;align=center;verticalAlign=middle;whiteSpace=wrap;rounded=0;fillColor=#fff2cc;strokeColor=#d6b656;sketch=1;curveFitting=1;jiggle=2;" vertex="1" parent="1">
          <mxGeometry x="505" y="360" width="130" height="130" as="geometry" />
        </mxCell>
        <mxCell id="X6uK3PPM871VzGU8RNQX-12" value="Avalia restrições para contratação&lt;div&gt;&lt;br&gt;&lt;/div&gt;&lt;div&gt;&lt;b&gt;Request&lt;/b&gt;: CID+Contrato+OTT&lt;/div&gt;&lt;div&gt;&lt;br&gt;&lt;/div&gt;&lt;div&gt;&lt;b&gt;Response&lt;/b&gt;: Contrato OK/NOK&lt;/div&gt;" style="text;html=1;align=center;verticalAlign=middle;whiteSpace=wrap;rounded=0;fillColor=#fff2cc;strokeColor=#d6b656;sketch=1;curveFitting=1;jiggle=2;" vertex="1" parent="1">
          <mxGeometry x="345" y="360" width="130" height="130" as="geometry" />
        </mxCell>
        <mxCell id="X6uK3PPM871VzGU8RNQX-13" value="&lt;b&gt;Dúvidas:&lt;/b&gt;&lt;div&gt;- Ao chamar o MS ORC o ID produto já é de conhecimento do STB? Caso negativo, qual informação que receberemos?&lt;/div&gt;&lt;div&gt;&lt;br&gt;&lt;/div&gt;&lt;div&gt;- Que informações o STB vai passar pra encontrar o contrato do cliente?&lt;/div&gt;&lt;div&gt;&lt;br&gt;&lt;/div&gt;&lt;div&gt;- Na negativa da checagem de crédito, repassar a mensagem que receber do serviço creditanalisys&lt;/div&gt;&lt;div&gt;&lt;br&gt;&lt;/div&gt;" style="text;html=1;align=left;verticalAlign=middle;whiteSpace=wrap;rounded=0;" vertex="1" parent="1">
          <mxGeometry x="600" y="50" width="190" height="120" as="geometry" />
        </mxCell>
        <mxCell id="X6uK3PPM871VzGU8RNQX-14" value="&lt;div&gt;Consultar dados do contrato (que informações do contrato que retornar? - info para checagem de crédito)&lt;/div&gt;&lt;div&gt;&lt;br&gt;&lt;/div&gt;&lt;div&gt;&lt;b&gt;Request&lt;/b&gt;: CID+Contrato+OTT?&lt;/div&gt;&lt;div&gt;&lt;br&gt;&lt;/div&gt;&lt;div&gt;&lt;b&gt;Response&lt;/b&gt;: Contrato OK/NOK?&lt;/div&gt;" style="text;html=1;align=center;verticalAlign=middle;whiteSpace=wrap;rounded=0;fillColor=#fff2cc;strokeColor=#d6b656;sketch=1;curveFitting=1;jiggle=2;" vertex="1" parent="1">
          <mxGeometry x="35" y="360" width="130" height="180" as="geometry" />
        </mxCell>
        <mxCell id="X6uK3PPM871VzGU8RNQX-15" value="Contrato SVA e inclui no contrato&lt;div&gt;&lt;br&gt;&lt;/div&gt;&lt;div&gt;&lt;b&gt;Request&lt;/b&gt;: CID+Contrato+Product ID&lt;/div&gt;&lt;div&gt;&lt;br&gt;&lt;/div&gt;&lt;div&gt;&lt;b&gt;Response&lt;/b&gt;: Status de contratação&lt;/div&gt;" style="text;html=1;align=center;verticalAlign=middle;whiteSpace=wrap;rounded=0;fillColor=#fff2cc;strokeColor=#d6b656;sketch=1;curveFitting=1;jiggle=2;" vertex="1" parent="1">
          <mxGeometry x="190" y="360" width="130" height="130" as="geometry" />
        </mxCell>
        <mxCell id="X6uK3PPM871VzGU8RNQX-17" value="APIGEE" style="rounded=0;whiteSpace=wrap;html=1;fillColor=#dae8fc;strokeColor=#6c8ebf;opacity=30;" vertex="1" parent="1">
          <mxGeometry x="300" y="120" width="220" height="20" as="geometry" />
        </mxCell>
        <mxCell id="X6uK3PPM871VzGU8RNQX-18" value="" style="edgeStyle=orthogonalEdgeStyle;rounded=0;orthogonalLoop=1;jettySize=auto;html=1;strokeColor=#FFB570;entryX=0.5;entryY=0;entryDx=0;entryDy=0;exitX=0.5;exitY=1;exitDx=0;exitDy=0;" edge="1" parent="1" source="X6uK3PPM871VzGU8RNQX-1" target="X6uK3PPM871VzGU8RNQX-9">
          <mxGeometry relative="1" as="geometry">
            <mxPoint x="540" y="140" as="sourcePoint" />
            <mxPoint x="540" y="248" as="targetPoint" />
            <Array as="points">
              <mxPoint x="414" y="280" />
            </Array>
          </mxGeometry>
        </mxCell>
        <mxCell id="X6uK3PPM871VzGU8RNQX-19" value="" style="edgeStyle=orthogonalEdgeStyle;rounded=0;orthogonalLoop=1;jettySize=auto;html=1;strokeColor=#FFB570;entryX=0.5;entryY=0;entryDx=0;entryDy=0;exitX=0.75;exitY=1;exitDx=0;exitDy=0;" edge="1" parent="1" source="X6uK3PPM871VzGU8RNQX-1" target="X6uK3PPM871VzGU8RNQX-10">
          <mxGeometry relative="1" as="geometry">
            <mxPoint x="424" y="250" as="sourcePoint" />
            <mxPoint x="424" y="300" as="targetPoint" />
            <Array as="points">
              <mxPoint x="444" y="270" />
              <mxPoint x="570" y="270" />
            </Array>
          </mxGeometry>
        </mxCell>
        <mxCell id="X6uK3PPM871VzGU8RNQX-20" value="" style="edgeStyle=orthogonalEdgeStyle;rounded=0;orthogonalLoop=1;jettySize=auto;html=1;strokeColor=#FFB570;entryX=0.5;entryY=0;entryDx=0;entryDy=0;exitX=0.25;exitY=1;exitDx=0;exitDy=0;" edge="1" parent="1" source="X6uK3PPM871VzGU8RNQX-1" target="X6uK3PPM871VzGU8RNQX-8">
          <mxGeometry relative="1" as="geometry">
            <mxPoint x="424" y="250" as="sourcePoint" />
            <mxPoint x="580" y="300" as="targetPoint" />
            <Array as="points">
              <mxPoint x="380" y="240" />
              <mxPoint x="380" y="270" />
              <mxPoint x="260" y="270" />
            </Array>
          </mxGeometry>
        </mxCell>
        <mxCell id="X6uK3PPM871VzGU8RNQX-21" value="Reuso de API que faz checagem de crédito&lt;br&gt;&lt;div&gt;&lt;br&gt;&lt;/div&gt;&lt;div&gt;&lt;b&gt;Request&lt;/b&gt;: Contrato+SKU+CID&lt;/div&gt;&lt;div&gt;&lt;br&gt;&lt;/div&gt;&lt;div&gt;&lt;b&gt;Response&lt;/b&gt;: Product ID&lt;/div&gt;" style="text;html=1;align=center;verticalAlign=middle;whiteSpace=wrap;rounded=0;fillColor=#fff2cc;strokeColor=#d6b656;sketch=1;curveFitting=1;jiggle=2;" vertex="1" parent="1">
          <mxGeometry x="645" y="360" width="130" height="130" as="geometry" />
        </mxCell>
        <mxCell id="X6uK3PPM871VzGU8RNQX-22" value="APIGEE" style="rounded=0;whiteSpace=wrap;html=1;fillColor=#dae8fc;strokeColor=#6c8ebf;opacity=30;" vertex="1" parent="1">
          <mxGeometry x="600" y="250" width="220" height="20" as="geometry" />
        </mxCell>
        <mxCell id="X6uK3PPM871VzGU8RNQX-25" value="2" style="ellipse;whiteSpace=wrap;html=1;aspect=fixed;fillColor=#f8cecc;strokeColor=#b85450;" vertex="1" parent="1">
          <mxGeometry x="505" y="280" width="20" height="20" as="geometry" />
        </mxCell>
        <mxCell id="X6uK3PPM871VzGU8RNQX-27" value="1" style="ellipse;whiteSpace=wrap;html=1;aspect=fixed;fillColor=#f8cecc;strokeColor=#b85450;" vertex="1" parent="1">
          <mxGeometry x="354" y="280" width="20" height="20" as="geometry" />
        </mxCell>
        <mxCell id="X6uK3PPM871VzGU8RNQX-28" value="3" style="ellipse;whiteSpace=wrap;html=1;aspect=fixed;fillColor=#f8cecc;strokeColor=#b85450;" vertex="1" parent="1">
          <mxGeometry x="35" y="280" width="20" height="20" as="geometry" />
        </mxCell>
        <mxCell id="X6uK3PPM871VzGU8RNQX-29" value="4" style="ellipse;whiteSpace=wrap;html=1;aspect=fixed;fillColor=#f8cecc;strokeColor=#b85450;" vertex="1" parent="1">
          <mxGeometry x="645" y="280" width="20" height="20" as="geometry" />
        </mxCell>
        <mxCell id="X6uK3PPM871VzGU8RNQX-30" value="5" style="ellipse;whiteSpace=wrap;html=1;aspect=fixed;fillColor=#f8cecc;strokeColor=#b85450;" vertex="1" parent="1">
          <mxGeometry x="190" y="280" width="20" height="20" as="geometry" />
        </mxCell>
      </root>
    </mxGraphModel>
  </diagram>
  <diagram name="v2" id="MNPFNKCds0o4m6CusKN5">
    <mxGraphModel dx="1050" dy="522" grid="1" gridSize="10" guides="1" tooltips="1" connect="1" arrows="1" fold="1" page="1" pageScale="1" pageWidth="827" pageHeight="1169" math="0" shadow="0">
      <root>
        <mxCell id="TsqrkqPf0RZO_JjdfV2q-0" />
        <mxCell id="TsqrkqPf0RZO_JjdfV2q-1" parent="TsqrkqPf0RZO_JjdfV2q-0" />
        <mxCell id="GYJVv4B859Lm1ghMFqLV-0" value="(Netflix) MS Atlas Inventário" style="rounded=1;whiteSpace=wrap;html=1;" parent="TsqrkqPf0RZO_JjdfV2q-1" vertex="1">
          <mxGeometry x="680" y="55" width="120" height="60" as="geometry" />
        </mxCell>
        <mxCell id="TsqrkqPf0RZO_JjdfV2q-2" style="edgeStyle=orthogonalEdgeStyle;rounded=0;orthogonalLoop=1;jettySize=auto;html=1;strokeColor=#FFB570;" parent="TsqrkqPf0RZO_JjdfV2q-1" source="TsqrkqPf0RZO_JjdfV2q-4" target="TsqrkqPf0RZO_JjdfV2q-7" edge="1">
          <mxGeometry relative="1" as="geometry" />
        </mxCell>
        <mxCell id="TsqrkqPf0RZO_JjdfV2q-3" value="Compra SVA" style="edgeLabel;html=1;align=center;verticalAlign=middle;resizable=0;points=[];" parent="TsqrkqPf0RZO_JjdfV2q-2" vertex="1" connectable="0">
          <mxGeometry x="-0.0965" y="3" relative="1" as="geometry">
            <mxPoint as="offset" />
          </mxGeometry>
        </mxCell>
        <mxCell id="TsqrkqPf0RZO_JjdfV2q-4" value="Compra Controle&amp;nbsp;&lt;div&gt;Remoto&lt;/div&gt;" style="shape=image;html=1;verticalAlign=top;verticalLabelPosition=bottom;labelBackgroundColor=#ffffff;imageAspect=0;aspect=fixed;image=https://cdn0.iconfinder.com/data/icons/electronics-line-style/64/Remote-128.png" parent="TsqrkqPf0RZO_JjdfV2q-1" vertex="1">
          <mxGeometry x="10" y="7" width="88" height="88" as="geometry" />
        </mxCell>
        <mxCell id="TsqrkqPf0RZO_JjdfV2q-5" style="edgeStyle=orthogonalEdgeStyle;rounded=0;orthogonalLoop=1;jettySize=auto;html=1;entryX=0.5;entryY=0;entryDx=0;entryDy=0;" parent="TsqrkqPf0RZO_JjdfV2q-1" source="TsqrkqPf0RZO_JjdfV2q-7" target="TsqrkqPf0RZO_JjdfV2q-10" edge="1">
          <mxGeometry relative="1" as="geometry" />
        </mxCell>
        <mxCell id="TsqrkqPf0RZO_JjdfV2q-6" value="" style="edgeStyle=orthogonalEdgeStyle;rounded=0;orthogonalLoop=1;jettySize=auto;html=1;strokeColor=#FFB570;" parent="TsqrkqPf0RZO_JjdfV2q-1" source="TsqrkqPf0RZO_JjdfV2q-7" target="TsqrkqPf0RZO_JjdfV2q-10" edge="1">
          <mxGeometry relative="1" as="geometry" />
        </mxCell>
        <mxCell id="TsqrkqPf0RZO_JjdfV2q-7" value="STB" style="shape=mxgraph.cisco.misc.set_top_box;html=1;pointerEvents=1;dashed=0;fillColor=#036897;strokeColor=#ffffff;strokeWidth=2;verticalLabelPosition=bottom;verticalAlign=top;align=center;outlineConnect=0;" parent="TsqrkqPf0RZO_JjdfV2q-1" vertex="1">
          <mxGeometry x="357" y="30" width="114" height="42" as="geometry" />
        </mxCell>
        <mxCell id="TsqrkqPf0RZO_JjdfV2q-9" style="edgeStyle=orthogonalEdgeStyle;rounded=0;orthogonalLoop=1;jettySize=auto;html=1;exitX=0.82;exitY=0.953;exitDx=0;exitDy=0;strokeColor=#FFB570;exitPerimeter=0;entryX=0;entryY=0.5;entryDx=0;entryDy=0;" parent="TsqrkqPf0RZO_JjdfV2q-1" source="TsqrkqPf0RZO_JjdfV2q-10" target="TsqrkqPf0RZO_JjdfV2q-11" edge="1">
          <mxGeometry relative="1" as="geometry">
            <Array as="points">
              <mxPoint x="455" y="270" />
              <mxPoint x="620" y="270" />
              <mxPoint x="620" y="355" />
            </Array>
          </mxGeometry>
        </mxCell>
        <mxCell id="GYJVv4B859Lm1ghMFqLV-3" style="edgeStyle=orthogonalEdgeStyle;rounded=0;orthogonalLoop=1;jettySize=auto;html=1;entryX=0;entryY=0.5;entryDx=0;entryDy=0;exitX=1;exitY=0.25;exitDx=0;exitDy=0;strokeColor=#FFD966;" parent="TsqrkqPf0RZO_JjdfV2q-1" source="TsqrkqPf0RZO_JjdfV2q-10" target="GYJVv4B859Lm1ghMFqLV-0" edge="1">
          <mxGeometry relative="1" as="geometry" />
        </mxCell>
        <mxCell id="GYJVv4B859Lm1ghMFqLV-17" style="edgeStyle=orthogonalEdgeStyle;rounded=0;orthogonalLoop=1;jettySize=auto;html=1;entryX=0.5;entryY=0;entryDx=0;entryDy=0;strokeColor=#FFD966;" parent="TsqrkqPf0RZO_JjdfV2q-1" source="TsqrkqPf0RZO_JjdfV2q-10" target="TsqrkqPf0RZO_JjdfV2q-12" edge="1">
          <mxGeometry relative="1" as="geometry" />
        </mxCell>
        <mxCell id="TsqrkqPf0RZO_JjdfV2q-10" value="Novo MS Orc" style="rounded=1;whiteSpace=wrap;html=1;fillColor=#fff2cc;strokeColor=#d6b656;" parent="TsqrkqPf0RZO_JjdfV2q-1" vertex="1">
          <mxGeometry x="357" y="180" width="120" height="60" as="geometry" />
        </mxCell>
        <mxCell id="TsqrkqPf0RZO_JjdfV2q-11" value="&lt;span data-teams=&quot;true&quot;&gt;residential-customerscontracts-v1&lt;/span&gt;" style="rounded=1;whiteSpace=wrap;html=1;" parent="TsqrkqPf0RZO_JjdfV2q-1" vertex="1">
          <mxGeometry x="680" y="325" width="120" height="60" as="geometry" />
        </mxCell>
        <mxCell id="TsqrkqPf0RZO_JjdfV2q-12" value="MS customer-orch-creditanalisys-svc" style="rounded=1;whiteSpace=wrap;html=1;" parent="TsqrkqPf0RZO_JjdfV2q-1" vertex="1">
          <mxGeometry x="471" y="330" width="120" height="60" as="geometry" />
        </mxCell>
        <mxCell id="TsqrkqPf0RZO_JjdfV2q-13" value="(Netflix) MS Contrata OTT (MS customer-netsms-customerorders-v1?)" style="rounded=1;whiteSpace=wrap;html=1;" parent="TsqrkqPf0RZO_JjdfV2q-1" vertex="1">
          <mxGeometry x="340" y="330" width="120" height="60" as="geometry" />
        </mxCell>
        <mxCell id="TsqrkqPf0RZO_JjdfV2q-14" value="(Netflix)&amp;nbsp;MS Elegibilidade" style="rounded=1;whiteSpace=wrap;html=1;" parent="TsqrkqPf0RZO_JjdfV2q-1" vertex="1">
          <mxGeometry x="680" y="235" width="120" height="60" as="geometry" />
        </mxCell>
        <mxCell id="TsqrkqPf0RZO_JjdfV2q-21" value="APIGEE" style="rounded=0;whiteSpace=wrap;html=1;fillColor=#dae8fc;strokeColor=#6c8ebf;opacity=30;" parent="TsqrkqPf0RZO_JjdfV2q-1" vertex="1">
          <mxGeometry x="300" y="120" width="220" height="20" as="geometry" />
        </mxCell>
        <mxCell id="TsqrkqPf0RZO_JjdfV2q-23" value="" style="edgeStyle=orthogonalEdgeStyle;rounded=0;orthogonalLoop=1;jettySize=auto;html=1;strokeColor=#FFB570;entryX=0;entryY=0.5;entryDx=0;entryDy=0;exitX=1;exitY=0.5;exitDx=0;exitDy=0;" parent="TsqrkqPf0RZO_JjdfV2q-1" source="TsqrkqPf0RZO_JjdfV2q-10" target="GYJVv4B859Lm1ghMFqLV-5" edge="1">
          <mxGeometry relative="1" as="geometry">
            <mxPoint x="424" y="250" as="sourcePoint" />
            <mxPoint x="570" y="290" as="targetPoint" />
            <Array as="points">
              <mxPoint x="600" y="210" />
              <mxPoint x="600" y="175" />
            </Array>
          </mxGeometry>
        </mxCell>
        <mxCell id="TsqrkqPf0RZO_JjdfV2q-24" value="" style="edgeStyle=orthogonalEdgeStyle;rounded=0;orthogonalLoop=1;jettySize=auto;html=1;strokeColor=#FFB570;entryX=0.5;entryY=0;entryDx=0;entryDy=0;exitX=0.25;exitY=1;exitDx=0;exitDy=0;" parent="TsqrkqPf0RZO_JjdfV2q-1" source="TsqrkqPf0RZO_JjdfV2q-10" target="TsqrkqPf0RZO_JjdfV2q-13" edge="1">
          <mxGeometry relative="1" as="geometry">
            <mxPoint x="424" y="250" as="sourcePoint" />
            <mxPoint x="580" y="300" as="targetPoint" />
            <Array as="points">
              <mxPoint x="387" y="260" />
              <mxPoint x="400" y="260" />
            </Array>
          </mxGeometry>
        </mxCell>
        <mxCell id="TsqrkqPf0RZO_JjdfV2q-26" value="APIGEE" style="rounded=0;whiteSpace=wrap;html=1;fillColor=#dae8fc;strokeColor=#6c8ebf;opacity=30;textDirection=vertical-lr;" parent="TsqrkqPf0RZO_JjdfV2q-1" vertex="1">
          <mxGeometry x="645" y="40" width="20" height="90" as="geometry" />
        </mxCell>
        <mxCell id="TsqrkqPf0RZO_JjdfV2q-28" value="1" style="ellipse;whiteSpace=wrap;html=1;aspect=fixed;fillColor=#f8cecc;strokeColor=#b85450;" parent="TsqrkqPf0RZO_JjdfV2q-1" vertex="1">
          <mxGeometry x="350" y="170" width="20" height="20" as="geometry" />
        </mxCell>
        <mxCell id="TsqrkqPf0RZO_JjdfV2q-29" value="7" style="ellipse;whiteSpace=wrap;html=1;aspect=fixed;fillColor=#f8cecc;strokeColor=#b85450;" parent="TsqrkqPf0RZO_JjdfV2q-1" vertex="1">
          <mxGeometry x="330" y="320" width="20" height="20" as="geometry" />
        </mxCell>
        <mxCell id="TsqrkqPf0RZO_JjdfV2q-30" value="5" style="ellipse;whiteSpace=wrap;html=1;aspect=fixed;fillColor=#f8cecc;strokeColor=#b85450;" parent="TsqrkqPf0RZO_JjdfV2q-1" vertex="1">
          <mxGeometry x="670" y="320" width="20" height="20" as="geometry" />
        </mxCell>
        <mxCell id="TsqrkqPf0RZO_JjdfV2q-31" value="6" style="ellipse;whiteSpace=wrap;html=1;aspect=fixed;fillColor=#f8cecc;strokeColor=#b85450;" parent="TsqrkqPf0RZO_JjdfV2q-1" vertex="1">
          <mxGeometry x="470" y="325" width="20" height="20" as="geometry" />
        </mxCell>
        <mxCell id="GYJVv4B859Lm1ghMFqLV-5" value="(Netflix) MS Encontrar Product ID" style="rounded=1;whiteSpace=wrap;html=1;" parent="TsqrkqPf0RZO_JjdfV2q-1" vertex="1">
          <mxGeometry x="680" y="145" width="120" height="60" as="geometry" />
        </mxCell>
        <mxCell id="GYJVv4B859Lm1ghMFqLV-6" value="APIGEE" style="rounded=0;whiteSpace=wrap;html=1;fillColor=#dae8fc;strokeColor=#6c8ebf;opacity=30;textDirection=vertical-lr;" parent="TsqrkqPf0RZO_JjdfV2q-1" vertex="1">
          <mxGeometry x="645" y="130" width="20" height="90" as="geometry" />
        </mxCell>
        <mxCell id="GYJVv4B859Lm1ghMFqLV-7" value="3" style="ellipse;whiteSpace=wrap;html=1;aspect=fixed;fillColor=#f8cecc;strokeColor=#b85450;" parent="TsqrkqPf0RZO_JjdfV2q-1" vertex="1">
          <mxGeometry x="670" y="142" width="20" height="20" as="geometry" />
        </mxCell>
        <mxCell id="GYJVv4B859Lm1ghMFqLV-8" value="APIGEE" style="rounded=0;whiteSpace=wrap;html=1;fillColor=#dae8fc;strokeColor=#6c8ebf;opacity=30;textDirection=vertical-lr;" parent="TsqrkqPf0RZO_JjdfV2q-1" vertex="1">
          <mxGeometry x="645" y="310" width="20" height="90" as="geometry" />
        </mxCell>
        <mxCell id="GYJVv4B859Lm1ghMFqLV-4" value="4" style="ellipse;whiteSpace=wrap;html=1;aspect=fixed;fillColor=#f8cecc;strokeColor=#b85450;" parent="TsqrkqPf0RZO_JjdfV2q-1" vertex="1">
          <mxGeometry x="670" y="230" width="20" height="20" as="geometry" />
        </mxCell>
        <mxCell id="GYJVv4B859Lm1ghMFqLV-15" value="APIGEE" style="rounded=0;whiteSpace=wrap;html=1;fillColor=#dae8fc;strokeColor=#6c8ebf;opacity=30;" parent="TsqrkqPf0RZO_JjdfV2q-1" vertex="1">
          <mxGeometry x="470" y="295" width="120" height="20" as="geometry" />
        </mxCell>
        <mxCell id="GYJVv4B859Lm1ghMFqLV-16" value="APIGEE" style="rounded=0;whiteSpace=wrap;html=1;fillColor=#dae8fc;strokeColor=#6c8ebf;opacity=30;" parent="TsqrkqPf0RZO_JjdfV2q-1" vertex="1">
          <mxGeometry x="340" y="295" width="120" height="20" as="geometry" />
        </mxCell>
        <mxCell id="4HADtcmN8OXayV3A06Ee-1" value="" style="edgeStyle=orthogonalEdgeStyle;rounded=0;orthogonalLoop=1;jettySize=auto;html=1;strokeColor=#FFB570;entryX=0;entryY=0.5;entryDx=0;entryDy=0;exitX=1;exitY=0.75;exitDx=0;exitDy=0;" edge="1" parent="TsqrkqPf0RZO_JjdfV2q-1" source="TsqrkqPf0RZO_JjdfV2q-10" target="TsqrkqPf0RZO_JjdfV2q-14">
          <mxGeometry relative="1" as="geometry">
            <mxPoint x="477" y="225" as="sourcePoint" />
            <mxPoint x="680" y="265" as="targetPoint" />
            <Array as="points" />
          </mxGeometry>
        </mxCell>
        <mxCell id="4HADtcmN8OXayV3A06Ee-0" value="APIGEE" style="rounded=0;whiteSpace=wrap;html=1;fillColor=#dae8fc;strokeColor=#6c8ebf;opacity=30;textDirection=vertical-lr;" vertex="1" parent="TsqrkqPf0RZO_JjdfV2q-1">
          <mxGeometry x="645" y="220" width="20" height="90" as="geometry" />
        </mxCell>
        <mxCell id="4HADtcmN8OXayV3A06Ee-2" value="1-&amp;nbsp;&lt;span style=&quot;background-color: transparent; color: windowtext; margin: 0px; padding: 0px; user-select: text; -webkit-user-drag: none; -webkit-tap-highlight-color: transparent; font-size: 11pt; font-family: Calibri, sans-serif; line-height: 20.7px; font-variant-ligatures: none !important;&quot; lang=&quot;PT-BR&quot; class=&quot;TextRun SCXO8733891 BCX0&quot; data-contrast=&quot;auto&quot;&gt;&lt;span style=&quot;margin: 0px; padding: 0px; user-select: text; -webkit-user-drag: none; -webkit-tap-highlight-color: transparent; background-repeat: repeat-x; background-position: left bottom; background-image: url(&amp;quot;data:image/gif;base64,R0lGODlhBQAEAJECAP////8AAAAAAAAAACH5BAEAAAIALAAAAAAFAAQAAAIIlGAXCCHrTCgAOw==&amp;quot;); border-bottom: 1px solid transparent; background-color: inherit;&quot; class=&quot;SpellingError SCXO8733891 BCX0&quot;&gt;request&lt;/span&gt;&lt;span style=&quot;margin: 0px; padding: 0px; user-select: text; -webkit-user-drag: none; -webkit-tap-highlight-color: transparent; background-color: inherit;&quot; class=&quot;NormalTextRun SCXO8733891 BCX0&quot;&gt;=&amp;gt;&amp;nbsp;&lt;/span&gt;&lt;span style=&quot;margin: 0px; padding: 0px; user-select: text; -webkit-user-drag: none; -webkit-tap-highlight-color: transparent; background-repeat: repeat-x; background-position: left bottom; background-image: url(&amp;quot;data:image/gif;base64,R0lGODlhBQAEAJECAP////8AAAAAAAAAACH5BAEAAAIALAAAAAAFAAQAAAIIlGAXCCHrTCgAOw==&amp;quot;); border-bottom: 1px solid transparent; background-color: inherit;&quot; class=&quot;SpellingError SCXO8733891 BCX0&quot;&gt;caid&lt;/span&gt;&lt;span style=&quot;margin: 0px; padding: 0px; user-select: text; -webkit-user-drag: none; -webkit-tap-highlight-color: transparent; background-color: inherit;&quot; class=&quot;NormalTextRun SCXO8733891 BCX0&quot;&gt;,&amp;nbsp;&lt;/span&gt;&lt;span style=&quot;margin: 0px; padding: 0px; user-select: text; -webkit-user-drag: none; -webkit-tap-highlight-color: transparent; background-repeat: repeat-x; background-position: left bottom; background-image: url(&amp;quot;data:image/gif;base64,R0lGODlhBQAEAJECAP////8AAAAAAAAAACH5BAEAAAIALAAAAAAFAAQAAAIIlGAXCCHrTCgAOw==&amp;quot;); border-bottom: 1px solid transparent; background-color: inherit;&quot; class=&quot;SpellingError SCXO8733891 BCX0&quot;&gt;smartcard&lt;/span&gt;&lt;span style=&quot;margin: 0px; padding: 0px; user-select: text; -webkit-user-drag: none; -webkit-tap-highlight-color: transparent; background-color: inherit;&quot; class=&quot;NormalTextRun SCXO8733891 BCX0&quot;&gt;, canal,&amp;nbsp;&lt;/span&gt;&lt;/span&gt;&lt;span style=&quot;background-color: transparent; color: windowtext; margin: 0px; padding: 0px; user-select: text; -webkit-user-drag: none; -webkit-tap-highlight-color: transparent; font-size: 11pt; font-family: Calibri, sans-serif; line-height: 20.7px; font-variant-ligatures: none !important;&quot; lang=&quot;PT-BR&quot; class=&quot;TextRun SCXO8733891 BCX0&quot; data-contrast=&quot;auto&quot;&gt;SKU&lt;/span&gt;&lt;span style=&quot;background-color: transparent; color: windowtext; margin: 0px; padding: 0px; user-select: text; -webkit-user-drag: none; -webkit-tap-highlight-color: transparent; font-size: 11pt; line-height: 20.7px; font-family: Calibri, sans-serif;&quot; class=&quot;EOP SCXO8733891 BCX0&quot;&gt;&amp;nbsp;&lt;/span&gt;&lt;div style=&quot;margin: 0px; padding: 0px; user-select: text; -webkit-user-drag: none; -webkit-tap-highlight-color: transparent; overflow: visible; cursor: text; clear: both; position: relative; direction: ltr; font-family: &amp;quot;Segoe UI&amp;quot;, &amp;quot;Segoe UI Web&amp;quot;, Arial, Verdana, sans-serif; background-color: rgb(255, 255, 255);&quot; class=&quot;OutlineElement Ltr  BCX0 SCXO8733891&quot;&gt;&lt;p style=&quot;margin: 0px; padding: 0px; user-select: text; -webkit-user-drag: none; -webkit-tap-highlight-color: transparent; overflow-wrap: break-word; vertical-align: baseline; font-kerning: none; background-color: transparent; color: windowtext;&quot; lang=&quot;PT-BR&quot; class=&quot;Paragraph SCXO8733891 BCX0&quot;&gt;&lt;span style=&quot;margin: 0px; padding: 0px; user-select: text; -webkit-user-drag: none; -webkit-tap-highlight-color: transparent; font-variant-ligatures: none !important; color: windowtext; font-size: 11pt; font-family: Calibri, sans-serif; line-height: 20.7px;&quot; lang=&quot;PT-BR&quot; class=&quot;TextRun SCXO8733891 BCX0&quot; data-contrast=&quot;auto&quot;&gt;response =&amp;gt;&amp;nbsp;&lt;/span&gt;&lt;span style=&quot;margin: 0px; padding: 0px; user-select: text; -webkit-user-drag: none; -webkit-tap-highlight-color: transparent; font-variant-ligatures: none !important; color: windowtext; font-size: 11pt; font-family: Calibri, sans-serif; line-height: 20.7px;&quot; lang=&quot;PT-BR&quot; class=&quot;TextRun SCXO8733891 BCX0&quot; data-contrast=&quot;auto&quot;&gt;&lt;span style=&quot;margin: 0px; padding: 0px; user-select: text; -webkit-user-drag: none; -webkit-tap-highlight-color: transparent; background-color: inherit;&quot; class=&quot;NormalTextRun SCXO8733891 BCX0&quot;&gt;Status (OK, Erro);&lt;/span&gt;&lt;/span&gt;&lt;/p&gt;&lt;p style=&quot;margin: 0px; padding: 0px; user-select: text; -webkit-user-drag: none; -webkit-tap-highlight-color: transparent; overflow-wrap: break-word; vertical-align: baseline; font-kerning: none; background-color: transparent; color: windowtext;&quot; lang=&quot;PT-BR&quot; class=&quot;Paragraph SCXO8733891 BCX0&quot;&gt;&lt;span style=&quot;margin: 0px; padding: 0px; user-select: text; -webkit-user-drag: none; -webkit-tap-highlight-color: transparent; font-variant-ligatures: none !important; color: windowtext; font-size: 11pt; font-family: Calibri, sans-serif; line-height: 20.7px;&quot; lang=&quot;PT-BR&quot; class=&quot;TextRun SCXO8733891 BCX0&quot; data-contrast=&quot;auto&quot;&gt;&lt;span style=&quot;margin: 0px; padding: 0px; user-select: text; -webkit-user-drag: none; -webkit-tap-highlight-color: transparent; background-color: inherit;&quot; class=&quot;NormalTextRun SCXO8733891 BCX0&quot;&gt;&lt;br&gt;&lt;/span&gt;&lt;/span&gt;&lt;/p&gt;&lt;p style=&quot;margin: 0px; padding: 0px; user-select: text; -webkit-user-drag: none; -webkit-tap-highlight-color: transparent; overflow-wrap: break-word; vertical-align: baseline; font-kerning: none; background-color: transparent; color: windowtext;&quot; lang=&quot;PT-BR&quot; class=&quot;Paragraph SCXO8733891 BCX0&quot;&gt;&lt;span style=&quot;margin: 0px; padding: 0px; user-select: text; -webkit-user-drag: none; -webkit-tap-highlight-color: transparent; font-variant-ligatures: none !important; color: windowtext; font-size: 11pt; font-family: Calibri, sans-serif; line-height: 20.7px;&quot; lang=&quot;PT-BR&quot; class=&quot;TextRun SCXO8733891 BCX0&quot; data-contrast=&quot;auto&quot;&gt;&lt;span style=&quot;margin: 0px; padding: 0px; user-select: text; -webkit-user-drag: none; -webkit-tap-highlight-color: transparent; background-color: inherit;&quot; class=&quot;NormalTextRun SCXO8733891 BCX0&quot;&gt;2-&amp;nbsp;&lt;/span&gt;&lt;/span&gt;&lt;span style=&quot;background-color: transparent; color: windowtext; margin: 0px; padding: 0px; user-select: text; -webkit-user-drag: none; -webkit-tap-highlight-color: transparent; font-size: 11pt; font-family: Calibri, sans-serif; line-height: 20.7px; font-variant-ligatures: none !important;&quot; lang=&quot;PT-BR&quot; class=&quot;TextRun SCXO78041931 BCX0&quot; data-contrast=&quot;auto&quot;&gt;&lt;span style=&quot;margin: 0px; padding: 0px; user-select: text; -webkit-user-drag: none; -webkit-tap-highlight-color: transparent; background-repeat: repeat-x; background-position: left bottom; background-image: url(&amp;quot;data:image/gif;base64,R0lGODlhBQAEAJECAP////8AAAAAAAAAACH5BAEAAAIALAAAAAAFAAQAAAIIlGAXCCHrTCgAOw==&amp;quot;); border-bottom: 1px solid transparent; background-color: inherit;&quot; class=&quot;SpellingError SCXO78041931 BCX0&quot;&gt;request&lt;/span&gt;&lt;span style=&quot;margin: 0px; padding: 0px; user-select: text; -webkit-user-drag: none; -webkit-tap-highlight-color: transparent; background-color: inherit;&quot; class=&quot;NormalTextRun SCXO78041931 BCX0&quot;&gt;=&amp;gt;&amp;nbsp;&lt;/span&gt;&lt;span style=&quot;margin: 0px; padding: 0px; user-select: text; -webkit-user-drag: none; -webkit-tap-highlight-color: transparent; background-repeat: repeat-x; background-position: left bottom; background-image: url(&amp;quot;data:image/gif;base64,R0lGODlhBQAEAJECAP////8AAAAAAAAAACH5BAEAAAIALAAAAAAFAAQAAAIIlGAXCCHrTCgAOw==&amp;quot;); border-bottom: 1px solid transparent; background-color: inherit;&quot; class=&quot;SpellingError SCXO78041931 BCX0&quot;&gt;caid&lt;/span&gt;&lt;/span&gt;&lt;span style=&quot;background-color: transparent; color: windowtext; margin: 0px; padding: 0px; user-select: text; -webkit-user-drag: none; -webkit-tap-highlight-color: transparent; font-size: 11pt; line-height: 20.7px; font-family: Calibri, sans-serif;&quot; class=&quot;EOP SCXO78041931 BCX0&quot;&gt;&amp;nbsp;&lt;/span&gt;&lt;/p&gt;&lt;div style=&quot;margin: 0px; padding: 0px; user-select: text; -webkit-user-drag: none; -webkit-tap-highlight-color: transparent; overflow: visible; cursor: text; clear: both; position: relative; direction: ltr;&quot; class=&quot;OutlineElement Ltr SCXO78041931 BCX0&quot;&gt;&lt;p style=&quot;margin: 0px; padding: 0px; user-select: text; -webkit-user-drag: none; -webkit-tap-highlight-color: transparent; overflow-wrap: break-word; vertical-align: baseline; font-kerning: none; background-color: transparent; color: windowtext;&quot; lang=&quot;PT-BR&quot; class=&quot;Paragraph SCXO78041931 BCX0&quot;&gt;&lt;span style=&quot;margin: 0px; padding: 0px; user-select: text; -webkit-user-drag: none; -webkit-tap-highlight-color: transparent; font-variant-ligatures: none !important; color: windowtext; font-size: 11pt; font-family: Calibri, sans-serif; line-height: 20.7px;&quot; lang=&quot;PT-BR&quot; class=&quot;TextRun SCXO78041931 BCX0&quot; data-contrast=&quot;auto&quot;&gt;&lt;span style=&quot;margin: 0px; padding: 0px; user-select: text; -webkit-user-drag: none; -webkit-tap-highlight-color: transparent; background-color: inherit;&quot; class=&quot;NormalTextRun SCXO78041931 BCX0&quot;&gt;response =&amp;gt;&amp;nbsp;&lt;/span&gt;&lt;span style=&quot;margin: 0px; padding: 0px; user-select: text; -webkit-user-drag: none; -webkit-tap-highlight-color: transparent; background-repeat: repeat-x; background-position: left bottom; background-image: url(&amp;quot;data:image/gif;base64,R0lGODlhBQAEAJECAP////8AAAAAAAAAACH5BAEAAAIALAAAAAAFAAQAAAIIlGAXCCHrTCgAOw==&amp;quot;); border-bottom: 1px solid transparent; background-color: inherit;&quot; class=&quot;SpellingError SCXO78041931 BCX0&quot;&gt;CID+Contrato&lt;/span&gt;&lt;/span&gt;&lt;span style=&quot;margin: 0px; padding: 0px; user-select: text; -webkit-user-drag: none; -webkit-tap-highlight-color: transparent; font-size: 11pt; line-height: 20.7px; font-family: Calibri, sans-serif; color: windowtext;&quot; class=&quot;EOP SCXO78041931 BCX0&quot;&gt;&amp;nbsp;&lt;/span&gt;&lt;/p&gt;&lt;p style=&quot;margin: 0px; padding: 0px; user-select: text; -webkit-user-drag: none; -webkit-tap-highlight-color: transparent; overflow-wrap: break-word; vertical-align: baseline; font-kerning: none; background-color: transparent; color: windowtext;&quot; lang=&quot;PT-BR&quot; class=&quot;Paragraph SCXO78041931 BCX0&quot;&gt;&lt;span style=&quot;margin: 0px; padding: 0px; user-select: text; -webkit-user-drag: none; -webkit-tap-highlight-color: transparent; font-size: 11pt; line-height: 20.7px; font-family: Calibri, sans-serif; color: windowtext;&quot; class=&quot;EOP SCXO78041931 BCX0&quot;&gt;&lt;br&gt;&lt;/span&gt;&lt;/p&gt;&lt;p style=&quot;margin: 0px; padding: 0px; user-select: text; -webkit-user-drag: none; -webkit-tap-highlight-color: transparent; overflow-wrap: break-word; vertical-align: baseline; font-kerning: none; background-color: transparent; color: windowtext;&quot; lang=&quot;PT-BR&quot; class=&quot;Paragraph SCXO78041931 BCX0&quot;&gt;&lt;span style=&quot;margin: 0px; padding: 0px; user-select: text; -webkit-user-drag: none; -webkit-tap-highlight-color: transparent; font-size: 11pt; line-height: 20.7px; font-family: Calibri, sans-serif; color: windowtext;&quot; class=&quot;EOP SCXO78041931 BCX0&quot;&gt;3-&amp;nbsp;&lt;/span&gt;&lt;span style=&quot;background-color: transparent; color: windowtext; margin: 0px; padding: 0px; user-select: text; -webkit-user-drag: none; -webkit-tap-highlight-color: transparent; font-size: 11pt; font-family: Calibri, sans-serif; line-height: 20.7px; font-variant-ligatures: none !important;&quot; lang=&quot;PT-BR&quot; class=&quot;TextRun SCXO56064914 BCX0&quot; data-contrast=&quot;auto&quot;&gt;&lt;span style=&quot;margin: 0px; padding: 0px; user-select: text; -webkit-user-drag: none; -webkit-tap-highlight-color: transparent; background-repeat: repeat-x; background-position: left bottom; background-image: url(&amp;quot;data:image/gif;base64,R0lGODlhBQAEAJECAP////8AAAAAAAAAACH5BAEAAAIALAAAAAAFAAQAAAIIlGAXCCHrTCgAOw==&amp;quot;); border-bottom: 1px solid transparent; background-color: inherit;&quot; class=&quot;SpellingError SCXO56064914 BCX0&quot;&gt;request&lt;/span&gt;&lt;span style=&quot;margin: 0px; padding: 0px; user-select: text; -webkit-user-drag: none; -webkit-tap-highlight-color: transparent; background-color: inherit;&quot; class=&quot;NormalTextRun SCXO56064914 BCX0&quot;&gt;=&amp;gt; SKU, CID, Contrato&lt;/span&gt;&lt;/span&gt;&lt;span style=&quot;background-color: transparent; color: windowtext; margin: 0px; padding: 0px; user-select: text; -webkit-user-drag: none; -webkit-tap-highlight-color: transparent; font-size: 11pt; line-height: 20.7px; font-family: Calibri, sans-serif;&quot; class=&quot;EOP SCXO56064914 BCX0&quot;&gt;&amp;nbsp;&lt;/span&gt;&lt;/p&gt;&lt;div style=&quot;margin: 0px; padding: 0px; user-select: text; -webkit-user-drag: none; -webkit-tap-highlight-color: transparent; overflow: visible; cursor: text; clear: both; position: relative; direction: ltr;&quot; class=&quot;OutlineElement Ltr SCXO56064914 BCX0&quot;&gt;&lt;p style=&quot;margin: 0px; padding: 0px; user-select: text; -webkit-user-drag: none; -webkit-tap-highlight-color: transparent; overflow-wrap: break-word; vertical-align: baseline; font-kerning: none; background-color: transparent; color: windowtext;&quot; lang=&quot;PT-BR&quot; class=&quot;Paragraph SCXO56064914 BCX0&quot;&gt;&lt;span style=&quot;margin: 0px; padding: 0px; user-select: text; -webkit-user-drag: none; -webkit-tap-highlight-color: transparent; font-variant-ligatures: none !important; color: windowtext; font-size: 11pt; font-family: Calibri, sans-serif; line-height: 20.7px;&quot; lang=&quot;PT-BR&quot; class=&quot;TextRun SCXO56064914 BCX0&quot; data-contrast=&quot;auto&quot;&gt;response =&amp;gt; ID Produto&lt;/span&gt;&lt;span style=&quot;margin: 0px; padding: 0px; user-select: text; -webkit-user-drag: none; -webkit-tap-highlight-color: transparent; font-size: 11pt; line-height: 20.7px; font-family: Calibri, sans-serif; color: windowtext;&quot; class=&quot;EOP SCXO56064914 BCX0&quot;&gt;&amp;nbsp;&lt;/span&gt;&lt;/p&gt;&lt;p style=&quot;margin: 0px; padding: 0px; user-select: text; -webkit-user-drag: none; -webkit-tap-highlight-color: transparent; overflow-wrap: break-word; vertical-align: baseline; font-kerning: none; background-color: transparent; color: windowtext;&quot; lang=&quot;PT-BR&quot; class=&quot;Paragraph SCXO56064914 BCX0&quot;&gt;&lt;span style=&quot;margin: 0px; padding: 0px; user-select: text; -webkit-user-drag: none; -webkit-tap-highlight-color: transparent; font-size: 11pt; line-height: 20.7px; font-family: Calibri, sans-serif; color: windowtext;&quot; class=&quot;EOP SCXO56064914 BCX0&quot;&gt;&lt;br&gt;&lt;/span&gt;&lt;/p&gt;&lt;p style=&quot;margin: 0px; padding: 0px; user-select: text; -webkit-user-drag: none; -webkit-tap-highlight-color: transparent; overflow-wrap: break-word; vertical-align: baseline; font-kerning: none; background-color: transparent; color: windowtext;&quot; lang=&quot;PT-BR&quot; class=&quot;Paragraph SCXO56064914 BCX0&quot;&gt;&lt;span style=&quot;margin: 0px; padding: 0px; user-select: text; -webkit-user-drag: none; -webkit-tap-highlight-color: transparent; font-size: 11pt; line-height: 20.7px; font-family: Calibri, sans-serif; color: windowtext;&quot; class=&quot;EOP SCXO56064914 BCX0&quot;&gt;4-&amp;nbsp;&lt;/span&gt;&lt;span style=&quot;background-color: transparent; color: windowtext; margin: 0px; padding: 0px; user-select: text; -webkit-user-drag: none; -webkit-tap-highlight-color: transparent; font-size: 11pt; font-family: Calibri, sans-serif; line-height: 20.7px; font-variant-ligatures: none !important;&quot; lang=&quot;PT-BR&quot; class=&quot;TextRun SCXO77239918 BCX0&quot; data-contrast=&quot;auto&quot;&gt;&lt;span style=&quot;margin: 0px; padding: 0px; user-select: text; -webkit-user-drag: none; -webkit-tap-highlight-color: transparent; background-repeat: repeat-x; background-position: left bottom; background-image: url(&amp;quot;data:image/gif;base64,R0lGODlhBQAEAJECAP////8AAAAAAAAAACH5BAEAAAIALAAAAAAFAAQAAAIIlGAXCCHrTCgAOw==&amp;quot;); border-bottom: 1px solid transparent; background-color: inherit;&quot; class=&quot;SpellingError SCXO77239918 BCX0&quot;&gt;request&lt;/span&gt;&lt;/span&gt;&lt;span style=&quot;background-color: transparent; color: windowtext; margin: 0px; padding: 0px; user-select: text; -webkit-user-drag: none; -webkit-tap-highlight-color: transparent; font-size: 11pt; font-family: Calibri, sans-serif; line-height: 20.7px; font-variant-ligatures: none !important;&quot; lang=&quot;PT-BR&quot; class=&quot;TextRun SCXO77239918 BCX0&quot; data-contrast=&quot;auto&quot;&gt;&lt;span style=&quot;margin: 0px; padding: 0px; user-select: text; -webkit-user-drag: none; -webkit-tap-highlight-color: transparent; background-color: inherit;&quot; class=&quot;NormalTextRun SCXO77239918 BCX0&quot;&gt;=&amp;gt;&amp;nbsp;&lt;/span&gt;&lt;span style=&quot;margin: 0px; padding: 0px; user-select: text; -webkit-user-drag: none; -webkit-tap-highlight-color: transparent; background-repeat: repeat-x; background-position: left bottom; background-image: url(&amp;quot;data:image/gif;base64,R0lGODlhBQAEAJECAP////8AAAAAAAAAACH5BAEAAAIALAAAAAAFAAQAAAIIlGAXCCHrTCgAOw==&amp;quot;); border-bottom: 1px solid transparent; background-color: inherit;&quot; class=&quot;SpellingError SCXO77239918 BCX0&quot;&gt;CID+Contrato+ID&lt;/span&gt;&lt;span style=&quot;margin: 0px; padding: 0px; user-select: text; -webkit-user-drag: none; -webkit-tap-highlight-color: transparent; background-color: inherit;&quot; class=&quot;NormalTextRun SCXO77239918 BCX0&quot;&gt;&amp;nbsp;Produto&lt;/span&gt;&lt;/span&gt;&lt;span style=&quot;background-color: transparent; color: windowtext; margin: 0px; padding: 0px; user-select: text; -webkit-user-drag: none; -webkit-tap-highlight-color: transparent; font-size: 11pt; line-height: 20.7px; font-family: Calibri, sans-serif;&quot; class=&quot;EOP SCXO77239918 BCX0&quot;&gt;&amp;nbsp;&lt;/span&gt;&lt;/p&gt;&lt;div style=&quot;margin: 0px; padding: 0px; user-select: text; -webkit-user-drag: none; -webkit-tap-highlight-color: transparent; overflow: visible; cursor: text; clear: both; position: relative; direction: ltr;&quot; class=&quot;OutlineElement Ltr SCXO77239918 BCX0&quot;&gt;&lt;p style=&quot;margin: 0px; padding: 0px; user-select: text; -webkit-user-drag: none; -webkit-tap-highlight-color: transparent; overflow-wrap: break-word; vertical-align: baseline; font-kerning: none; background-color: transparent; color: windowtext;&quot; lang=&quot;PT-BR&quot; class=&quot;Paragraph SCXO77239918 BCX0&quot;&gt;&lt;span style=&quot;margin: 0px; padding: 0px; user-select: text; -webkit-user-drag: none; -webkit-tap-highlight-color: transparent; font-variant-ligatures: none !important; color: windowtext; font-size: 11pt; font-family: Calibri, sans-serif; line-height: 20.7px;&quot; lang=&quot;PT-BR&quot; class=&quot;TextRun SCXO77239918 BCX0&quot; data-contrast=&quot;auto&quot;&gt;response&amp;nbsp;&lt;/span&gt;&lt;span style=&quot;margin: 0px; padding: 0px; user-select: text; -webkit-user-drag: none; -webkit-tap-highlight-color: transparent; font-variant-ligatures: none !important; color: windowtext; font-size: 11pt; font-family: Calibri, sans-serif; line-height: 20.7px;&quot; lang=&quot;PT-BR&quot; class=&quot;TextRun SCXO77239918 BCX0&quot; data-contrast=&quot;auto&quot;&gt;=&amp;gt; confirmação se Contrato elegível ou não para contratação&lt;/span&gt;&lt;/p&gt;&lt;p style=&quot;margin: 0px; padding: 0px; user-select: text; -webkit-user-drag: none; -webkit-tap-highlight-color: transparent; overflow-wrap: break-word; vertical-align: baseline; font-kerning: none; background-color: transparent; color: windowtext;&quot; lang=&quot;PT-BR&quot; class=&quot;Paragraph SCXO77239918 BCX0&quot;&gt;&lt;span style=&quot;margin: 0px; padding: 0px; user-select: text; -webkit-user-drag: none; -webkit-tap-highlight-color: transparent; font-variant-ligatures: none !important; color: windowtext; font-size: 11pt; font-family: Calibri, sans-serif; line-height: 20.7px;&quot; lang=&quot;PT-BR&quot; class=&quot;TextRun SCXO77239918 BCX0&quot; data-contrast=&quot;auto&quot;&gt;&lt;br&gt;&lt;/span&gt;&lt;/p&gt;&lt;p style=&quot;margin: 0px; padding: 0px; user-select: text; -webkit-user-drag: none; -webkit-tap-highlight-color: transparent; overflow-wrap: break-word; vertical-align: baseline; font-kerning: none; background-color: transparent; color: windowtext;&quot; lang=&quot;PT-BR&quot; class=&quot;Paragraph SCXO77239918 BCX0&quot;&gt;&lt;span style=&quot;margin: 0px; padding: 0px; user-select: text; -webkit-user-drag: none; -webkit-tap-highlight-color: transparent; font-variant-ligatures: none !important; color: windowtext; font-size: 11pt; font-family: Calibri, sans-serif; line-height: 20.7px;&quot; lang=&quot;PT-BR&quot; class=&quot;TextRun SCXO77239918 BCX0&quot; data-contrast=&quot;auto&quot;&gt;5-&amp;nbsp;&lt;/span&gt;&lt;span style=&quot;background-color: transparent; color: windowtext; margin: 0px; padding: 0px; user-select: text; -webkit-user-drag: none; -webkit-tap-highlight-color: transparent; font-size: 11pt; font-family: Calibri, sans-serif; line-height: 20.7px; font-variant-ligatures: none !important;&quot; lang=&quot;PT-BR&quot; class=&quot;TextRun SCXO227536084 BCX0&quot; data-contrast=&quot;auto&quot;&gt;&lt;span style=&quot;margin: 0px; padding: 0px; user-select: text; -webkit-user-drag: none; -webkit-tap-highlight-color: transparent; background-repeat: repeat-x; background-position: left bottom; background-image: url(&amp;quot;data:image/gif;base64,R0lGODlhBQAEAJECAP////8AAAAAAAAAACH5BAEAAAIALAAAAAAFAAQAAAIIlGAXCCHrTCgAOw==&amp;quot;); border-bottom: 1px solid transparent; background-color: inherit;&quot; class=&quot;SpellingError SCXO227536084 BCX0&quot;&gt;request&lt;/span&gt;&lt;/span&gt;&lt;span style=&quot;background-color: transparent; color: windowtext; margin: 0px; padding: 0px; user-select: text; -webkit-user-drag: none; -webkit-tap-highlight-color: transparent; font-size: 11pt; font-family: Calibri, sans-serif; line-height: 20.7px; font-variant-ligatures: none !important;&quot; lang=&quot;PT-BR&quot; class=&quot;TextRun SCXO227536084 BCX0&quot; data-contrast=&quot;auto&quot;&gt;= &amp;gt;&amp;nbsp;&lt;/span&gt;&lt;span style=&quot;background-color: transparent; color: windowtext; margin: 0px; padding: 0px; user-select: text; -webkit-user-drag: none; -webkit-tap-highlight-color: transparent; font-size: 11pt; font-family: Calibri, sans-serif; line-height: 20.7px; font-variant-ligatures: none !important;&quot; lang=&quot;PT-BR&quot; class=&quot;TextRun SCXO227536084 BCX0&quot; data-contrast=&quot;auto&quot;&gt;&lt;span style=&quot;margin: 0px; padding: 0px; user-select: text; -webkit-user-drag: none; -webkit-tap-highlight-color: transparent; background-repeat: repeat-x; background-position: left bottom; background-image: url(&amp;quot;data:image/gif;base64,R0lGODlhBQAEAJECAP////8AAAAAAAAAACH5BAEAAAIALAAAAAAFAAQAAAIIlGAXCCHrTCgAOw==&amp;quot;); border-bottom: 1px solid transparent; background-color: inherit;&quot; class=&quot;SpellingError SCXO227536084 BCX0&quot;&gt;CID+Contrato&lt;/span&gt;&lt;/span&gt;&lt;span style=&quot;background-color: transparent; color: windowtext; margin: 0px; padding: 0px; user-select: text; -webkit-user-drag: none; -webkit-tap-highlight-color: transparent; font-size: 11pt; line-height: 20.7px; font-family: Calibri, sans-serif;&quot; class=&quot;EOP SCXO227536084 BCX0&quot;&gt;&amp;nbsp;&lt;/span&gt;&lt;/p&gt;&lt;div style=&quot;margin: 0px; padding: 0px; user-select: text; -webkit-user-drag: none; -webkit-tap-highlight-color: transparent; overflow: visible; cursor: text; clear: both; position: relative; direction: ltr;&quot; class=&quot;OutlineElement Ltr SCXO227536084 BCX0&quot;&gt;&lt;p style=&quot;margin: 0px; padding: 0px; user-select: text; -webkit-user-drag: none; -webkit-tap-highlight-color: transparent; overflow-wrap: break-word; vertical-align: baseline; font-kerning: none; background-color: transparent; color: windowtext;&quot; lang=&quot;PT-BR&quot; class=&quot;Paragraph SCXO227536084 BCX0&quot;&gt;&lt;span style=&quot;margin: 0px; padding: 0px; user-select: text; -webkit-user-drag: none; -webkit-tap-highlight-color: transparent; font-variant-ligatures: none !important; color: windowtext; font-size: 11pt; font-family: Calibri, sans-serif; line-height: 20.7px;&quot; lang=&quot;PT-BR&quot; class=&quot;TextRun SCXO227536084 BCX0&quot; data-contrast=&quot;auto&quot;&gt;response&amp;nbsp;&lt;/span&gt;&lt;span style=&quot;margin: 0px; padding: 0px; user-select: text; -webkit-user-drag: none; -webkit-tap-highlight-color: transparent; font-variant-ligatures: none !important; color: windowtext; font-size: 11pt; font-family: Calibri, sans-serif; line-height: 20.7px;&quot; lang=&quot;PT-BR&quot; class=&quot;TextRun SCXO227536084 BCX0&quot; data-contrast=&quot;auto&quot;&gt;&lt;span style=&quot;margin: 0px; padding: 0px; user-select: text; -webkit-user-drag: none; -webkit-tap-highlight-color: transparent; background-color: inherit;&quot; class=&quot;NormalTextRun SCXO227536084 BCX0&quot;&gt;=&amp;gt; CPF/CNPJ Cliente, Nome Cliente,&amp;nbsp;&lt;/span&gt;&lt;span style=&quot;margin: 0px; padding: 0px; user-select: text; -webkit-user-drag: none; -webkit-tap-highlight-color: transparent; background-repeat: repeat-x; background-position: left bottom; background-image: url(&amp;quot;data:image/gif;base64,R0lGODlhBQAEAJECAP////8AAAAAAAAAACH5BAEAAAIALAAAAAAFAAQAAAIIlGAXCCHrTCgAOw==&amp;quot;); border-bottom: 1px solid transparent; background-color: inherit;&quot; class=&quot;SpellingError SCXO227536084 BCX0&quot;&gt;Dt&lt;/span&gt;&lt;span style=&quot;margin: 0px; padding: 0px; user-select: text; -webkit-user-drag: none; -webkit-tap-highlight-color: transparent; background-color: inherit;&quot; class=&quot;NormalTextRun SCXO227536084 BCX0&quot;&gt;&amp;nbsp;Instalação&lt;/span&gt;&lt;/span&gt;&lt;span style=&quot;margin: 0px; padding: 0px; user-select: text; -webkit-user-drag: none; -webkit-tap-highlight-color: transparent; font-size: 11pt; line-height: 20.7px; font-family: Calibri, sans-serif; color: windowtext;&quot; class=&quot;EOP SCXO227536084 BCX0&quot;&gt;&amp;nbsp;&lt;/span&gt;&lt;/p&gt;&lt;p style=&quot;margin: 0px; padding: 0px; user-select: text; -webkit-user-drag: none; -webkit-tap-highlight-color: transparent; overflow-wrap: break-word; vertical-align: baseline; font-kerning: none; background-color: transparent; color: windowtext;&quot; lang=&quot;PT-BR&quot; class=&quot;Paragraph SCXO227536084 BCX0&quot;&gt;&lt;span style=&quot;margin: 0px; padding: 0px; user-select: text; -webkit-user-drag: none; -webkit-tap-highlight-color: transparent; font-size: 11pt; line-height: 20.7px; font-family: Calibri, sans-serif; color: windowtext;&quot; class=&quot;EOP SCXO227536084 BCX0&quot;&gt;&lt;br&gt;&lt;/span&gt;&lt;/p&gt;&lt;div style=&quot;margin: 0px; padding: 0px; user-select: text; -webkit-user-drag: none; -webkit-tap-highlight-color: transparent; overflow: visible; cursor: text; clear: both; position: relative; direction: ltr;&quot; class=&quot;OutlineElement Ltr SCXO117879966 BCX0&quot;&gt;&lt;p style=&quot;margin: 0px; padding: 0px; user-select: text; -webkit-user-drag: none; -webkit-tap-highlight-color: transparent; overflow-wrap: break-word; vertical-align: baseline; font-kerning: none; background-color: transparent; color: windowtext;&quot; lang=&quot;PT-BR&quot; class=&quot;Paragraph SCXO117879966 BCX0&quot;&gt;&lt;span style=&quot;margin: 0px; padding: 0px; user-select: text; -webkit-user-drag: none; -webkit-tap-highlight-color: transparent; font-variant-ligatures: none !important; color: windowtext; font-size: 11pt; font-family: Calibri, sans-serif; line-height: 20.7px;&quot; lang=&quot;PT-BR&quot; class=&quot;TextRun SCXO117879966 BCX0&quot; data-contrast=&quot;auto&quot;&gt;&lt;span style=&quot;margin: 0px; padding: 0px; user-select: text; -webkit-user-drag: none; -webkit-tap-highlight-color: transparent; background-repeat: repeat-x; background-position: left bottom; background-image: url(&amp;quot;data:image/gif;base64,R0lGODlhBQAEAJECAP////8AAAAAAAAAACH5BAEAAAIALAAAAAAFAAQAAAIIlGAXCCHrTCgAOw==&amp;quot;); border-bottom: 1px solid transparent; background-color: inherit;&quot; class=&quot;SpellingError SCXO117879966 BCX0&quot;&gt;6- request&lt;/span&gt;&lt;/span&gt;&lt;span style=&quot;margin: 0px; padding: 0px; user-select: text; -webkit-user-drag: none; -webkit-tap-highlight-color: transparent; font-variant-ligatures: none !important; color: windowtext; font-size: 11pt; font-family: Calibri, sans-serif; line-height: 20.7px;&quot; lang=&quot;PT-BR&quot; class=&quot;TextRun SCXO117879966 BCX0&quot; data-contrast=&quot;auto&quot;&gt;= &amp;gt;&amp;nbsp;&lt;/span&gt;&lt;span style=&quot;margin: 0px; padding: 0px; user-select: text; -webkit-user-drag: none; -webkit-tap-highlight-color: transparent; font-variant-ligatures: none !important; color: windowtext; font-size: 11pt; font-family: Calibri, sans-serif; line-height: 20.7px;&quot; lang=&quot;PT-BR&quot; class=&quot;TextRun SCXO117879966 BCX0&quot; data-contrast=&quot;auto&quot;&gt;&lt;span style=&quot;margin: 0px; padding: 0px; user-select: text; -webkit-user-drag: none; -webkit-tap-highlight-color: transparent; background-repeat: repeat-x; background-position: left bottom; background-image: url(&amp;quot;data:image/gif;base64,R0lGODlhBQAEAJECAP////8AAAAAAAAAACH5BAEAAAIALAAAAAAFAAQAAAIIlGAXCCHrTCgAOw==&amp;quot;); border-bottom: 1px solid transparent; background-color: inherit;&quot; class=&quot;SpellingError SCXO117879966 BCX0&quot;&gt;CID+Contrato&lt;/span&gt;&lt;span style=&quot;margin: 0px; padding: 0px; user-select: text; -webkit-user-drag: none; -webkit-tap-highlight-color: transparent; background-color: inherit;&quot; class=&quot;NormalTextRun SCXO117879966 BCX0&quot;&gt;, canal,&amp;nbsp;&lt;/span&gt;&lt;/span&gt;&lt;span style=&quot;margin: 0px; padding: 0px; user-select: text; -webkit-user-drag: none; -webkit-tap-highlight-color: transparent; font-variant-ligatures: none !important; color: windowtext; font-size: 11pt; font-family: Calibri, sans-serif; line-height: 20.7px;&quot; lang=&quot;PT-BR&quot; class=&quot;TextRun SCXO117879966 BCX0&quot; data-contrast=&quot;auto&quot;&gt;&lt;span style=&quot;margin: 0px; padding: 0px; user-select: text; -webkit-user-drag: none; -webkit-tap-highlight-color: transparent; background-color: inherit;&quot; class=&quot;NormalTextRun SCXO117879966 BCX0&quot;&gt;CPF/CNPJ Cliente, Nome Cliente,&amp;nbsp;&lt;/span&gt;&lt;span style=&quot;margin: 0px; padding: 0px; user-select: text; -webkit-user-drag: none; -webkit-tap-highlight-color: transparent; background-repeat: repeat-x; background-position: left bottom; background-image: url(&amp;quot;data:image/gif;base64,R0lGODlhBQAEAJECAP////8AAAAAAAAAACH5BAEAAAIALAAAAAAFAAQAAAIIlGAXCCHrTCgAOw==&amp;quot;); border-bottom: 1px solid transparent; background-color: inherit;&quot; class=&quot;SpellingError SCXO117879966 BCX0&quot;&gt;Dt&lt;/span&gt;&lt;span style=&quot;margin: 0px; padding: 0px; user-select: text; -webkit-user-drag: none; -webkit-tap-highlight-color: transparent; background-color: inherit;&quot; class=&quot;NormalTextRun SCXO117879966 BCX0&quot;&gt;&amp;nbsp;Instalação, preço, nome produto&lt;/span&gt;&lt;/span&gt;&lt;span style=&quot;margin: 0px; padding: 0px; user-select: text; -webkit-user-drag: none; -webkit-tap-highlight-color: transparent; font-size: 11pt; line-height: 20.7px; font-family: Calibri, sans-serif; color: windowtext;&quot; class=&quot;EOP SCXO117879966 BCX0&quot;&gt;&amp;nbsp;&lt;/span&gt;&lt;/p&gt;&lt;/div&gt;&lt;p style=&quot;margin: 0px; padding: 0px; user-select: text; -webkit-user-drag: none; -webkit-tap-highlight-color: transparent; overflow-wrap: break-word; vertical-align: baseline; font-kerning: none; background-color: transparent; color: windowtext;&quot; lang=&quot;PT-BR&quot; class=&quot;Paragraph SCXO227536084 BCX0&quot;&gt;&lt;span style=&quot;margin: 0px; padding: 0px; user-select: text; -webkit-user-drag: none; -webkit-tap-highlight-color: transparent; font-size: 11pt; line-height: 20.7px; font-family: Calibri, sans-serif; color: windowtext;&quot; class=&quot;EOP SCXO227536084 BCX0&quot;&gt;&lt;/span&gt;&lt;/p&gt;&lt;div style=&quot;margin: 0px; padding: 0px; user-select: text; -webkit-user-drag: none; -webkit-tap-highlight-color: transparent; overflow: visible; cursor: text; clear: both; position: relative; direction: ltr;&quot; class=&quot;OutlineElement Ltr SCXO117879966 BCX0&quot;&gt;&lt;p style=&quot;margin: 0px; padding: 0px; user-select: text; -webkit-user-drag: none; -webkit-tap-highlight-color: transparent; overflow-wrap: break-word; vertical-align: baseline; font-kerning: none; background-color: transparent; color: windowtext;&quot; lang=&quot;PT-BR&quot; class=&quot;Paragraph SCXO117879966 BCX0&quot;&gt;&lt;span style=&quot;margin: 0px; padding: 0px; user-select: text; -webkit-user-drag: none; -webkit-tap-highlight-color: transparent; font-variant-ligatures: none !important; color: windowtext; font-size: 11pt; font-family: Calibri, sans-serif; line-height: 20.7px;&quot; lang=&quot;PT-BR&quot; class=&quot;TextRun SCXO117879966 BCX0&quot; data-contrast=&quot;auto&quot;&gt;response&amp;nbsp;&lt;/span&gt;&lt;span style=&quot;margin: 0px; padding: 0px; user-select: text; -webkit-user-drag: none; -webkit-tap-highlight-color: transparent; font-variant-ligatures: none !important; color: windowtext; font-size: 11pt; font-family: Calibri, sans-serif; line-height: 20.7px;&quot; lang=&quot;PT-BR&quot; class=&quot;TextRun SCXO117879966 BCX0&quot; data-contrast=&quot;auto&quot;&gt;=&amp;gt; Status checagem de crédito&lt;/span&gt;&lt;/p&gt;&lt;/div&gt;&lt;p style=&quot;margin: 0px; padding: 0px; user-select: text; -webkit-user-drag: none; -webkit-tap-highlight-color: transparent; overflow-wrap: break-word; vertical-align: baseline; font-kerning: none; background-color: transparent; color: windowtext;&quot; lang=&quot;PT-BR&quot; class=&quot;Paragraph SCXO227536084 BCX0&quot;&gt;&lt;span style=&quot;margin: 0px; padding: 0px; user-select: text; -webkit-user-drag: none; -webkit-tap-highlight-color: transparent; font-size: 11pt; line-height: 20.7px; font-family: Calibri, sans-serif; color: windowtext;&quot; class=&quot;EOP SCXO227536084 BCX0&quot;&gt;&lt;br&gt;&lt;/span&gt;&lt;/p&gt;&lt;p style=&quot;margin: 0px; padding: 0px; user-select: text; -webkit-user-drag: none; -webkit-tap-highlight-color: transparent; overflow-wrap: break-word; vertical-align: baseline; font-kerning: none; background-color: transparent; color: windowtext;&quot; lang=&quot;PT-BR&quot; class=&quot;Paragraph SCXO227536084 BCX0&quot;&gt;&lt;span style=&quot;margin: 0px; padding: 0px; user-select: text; -webkit-user-drag: none; -webkit-tap-highlight-color: transparent; font-size: 11pt; line-height: 20.7px; font-family: Calibri, sans-serif; color: windowtext;&quot; class=&quot;EOP SCXO227536084 BCX0&quot;&gt;7-&amp;nbsp;&lt;/span&gt;&lt;span style=&quot;background-color: transparent; color: windowtext; margin: 0px; padding: 0px; user-select: text; -webkit-user-drag: none; -webkit-tap-highlight-color: transparent; font-size: 11pt; font-family: Calibri, sans-serif; line-height: 20.7px; font-variant-ligatures: none !important;&quot; lang=&quot;PT-BR&quot; class=&quot;TextRun SCXO174978976 BCX0&quot; data-contrast=&quot;auto&quot;&gt;&lt;span style=&quot;margin: 0px; padding: 0px; user-select: text; -webkit-user-drag: none; -webkit-tap-highlight-color: transparent; background-repeat: repeat-x; background-position: left bottom; background-image: url(&amp;quot;data:image/gif;base64,R0lGODlhBQAEAJECAP////8AAAAAAAAAACH5BAEAAAIALAAAAAAFAAQAAAIIlGAXCCHrTCgAOw==&amp;quot;); border-bottom: 1px solid transparent; background-color: inherit;&quot; class=&quot;SpellingError SCXO174978976 BCX0&quot;&gt;request&lt;/span&gt;&lt;/span&gt;&lt;span style=&quot;background-color: transparent; color: windowtext; margin: 0px; padding: 0px; user-select: text; -webkit-user-drag: none; -webkit-tap-highlight-color: transparent; font-size: 11pt; font-family: Calibri, sans-serif; line-height: 20.7px; font-variant-ligatures: none !important;&quot; lang=&quot;PT-BR&quot; class=&quot;TextRun SCXO174978976 BCX0&quot; data-contrast=&quot;auto&quot;&gt;= &amp;gt;&amp;nbsp;&lt;/span&gt;&lt;span style=&quot;background-color: transparent; color: windowtext; margin: 0px; padding: 0px; user-select: text; -webkit-user-drag: none; -webkit-tap-highlight-color: transparent; font-size: 11pt; font-family: Calibri, sans-serif; line-height: 20.7px; font-variant-ligatures: none !important;&quot; lang=&quot;PT-BR&quot; class=&quot;TextRun SCXO174978976 BCX0&quot; data-contrast=&quot;auto&quot;&gt;&lt;span style=&quot;margin: 0px; padding: 0px; user-select: text; -webkit-user-drag: none; -webkit-tap-highlight-color: transparent; background-repeat: repeat-x; background-position: left bottom; background-image: url(&amp;quot;data:image/gif;base64,R0lGODlhBQAEAJECAP////8AAAAAAAAAACH5BAEAAAIALAAAAAAFAAQAAAIIlGAXCCHrTCgAOw==&amp;quot;); border-bottom: 1px solid transparent; background-color: inherit;&quot; class=&quot;SpellingError SCXO174978976 BCX0&quot;&gt;CID+Contrato&lt;/span&gt;&lt;span style=&quot;margin: 0px; padding: 0px; user-select: text; -webkit-user-drag: none; -webkit-tap-highlight-color: transparent; background-color: inherit;&quot; class=&quot;NormalTextRun SCXO174978976 BCX0&quot;&gt;, ID Produto&lt;/span&gt;&lt;/span&gt;&lt;span style=&quot;background-color: transparent; color: windowtext; margin: 0px; padding: 0px; user-select: text; -webkit-user-drag: none; -webkit-tap-highlight-color: transparent; font-size: 11pt; line-height: 20.7px; font-family: Calibri, sans-serif;&quot; class=&quot;EOP SCXO174978976 BCX0&quot;&gt;&amp;nbsp;&lt;/span&gt;&lt;/p&gt;&lt;div style=&quot;margin: 0px; padding: 0px; user-select: text; -webkit-user-drag: none; -webkit-tap-highlight-color: transparent; overflow: visible; cursor: text; clear: both; position: relative; direction: ltr;&quot; class=&quot;OutlineElement Ltr  BCX0 SCXO174978976&quot;&gt;&lt;p style=&quot;margin: 0px; padding: 0px; user-select: text; -webkit-user-drag: none; -webkit-tap-highlight-color: transparent; overflow-wrap: break-word; vertical-align: baseline; font-kerning: none; background-color: transparent; color: windowtext;&quot; lang=&quot;PT-BR&quot; class=&quot;Paragraph SCXO174978976 BCX0&quot;&gt;&lt;span style=&quot;margin: 0px; padding: 0px; user-select: text; -webkit-user-drag: none; -webkit-tap-highlight-color: transparent; font-variant-ligatures: none !important; color: windowtext; font-size: 11pt; font-family: Calibri, sans-serif; line-height: 20.7px;&quot; lang=&quot;PT-BR&quot; class=&quot;TextRun SCXO174978976 BCX0&quot; data-contrast=&quot;auto&quot;&gt;response&amp;nbsp;&lt;/span&gt;&lt;span style=&quot;margin: 0px; padding: 0px; user-select: text; -webkit-user-drag: none; -webkit-tap-highlight-color: transparent; font-variant-ligatures: none !important; color: windowtext; font-size: 11pt; font-family: Calibri, sans-serif; line-height: 20.7px;&quot; lang=&quot;PT-BR&quot; class=&quot;TextRun SCXO174978976 BCX0&quot; data-contrast=&quot;auto&quot;&gt;=&amp;gt; Status contratação&lt;/span&gt;&lt;span style=&quot;margin: 0px; padding: 0px; user-select: text; -webkit-user-drag: none; -webkit-tap-highlight-color: transparent; font-size: 11pt; line-height: 20.7px; font-family: Calibri, sans-serif; color: windowtext;&quot; class=&quot;EOP SCXO174978976 BCX0&quot;&gt;&amp;nbsp;&lt;/span&gt;&lt;/p&gt;&lt;/div&gt;&lt;/div&gt;&lt;/div&gt;&lt;/div&gt;&lt;/div&gt;&lt;/div&gt;" style="text;html=1;align=left;verticalAlign=top;whiteSpace=wrap;rounded=0;" vertex="1" parent="TsqrkqPf0RZO_JjdfV2q-1">
          <mxGeometry x="10" y="142" width="310" height="390" as="geometry" />
        </mxCell>
        <mxCell id="4HADtcmN8OXayV3A06Ee-3" value="2" style="ellipse;whiteSpace=wrap;html=1;aspect=fixed;fillColor=#f8cecc;strokeColor=#b85450;" vertex="1" parent="TsqrkqPf0RZO_JjdfV2q-1">
          <mxGeometry x="670" y="52" width="20" height="20" as="geometry" />
        </mxCell>
      </root>
    </mxGraphModel>
  </diagram>
</mxfile>
